<svg xmlns="http://www.w3.org/2000/svg" viewBox="0 0 1228.5 220.5"><defs><style>.cls-1{fill:#fff;}</style></defs><g id="レイヤー_2" data-name="レイヤー 2"><g id="レイヤー_1-2" data-name="レイヤー 1"><path class="cls-1" d="M220.5,31.5v126H189V189H157.5v31.5H31.5V189H0V31.5H31.5V0H189V31.5Zm-63,0H63V189h63V157.5H94.5V126h63Zm31.5,189V189h31.5v31.5Z"/><path class="cls-1" d="M283.5,220.5V189H252V0h63V189h94.5V0h63V189H441v31.5Z"/><path class="cls-1" d="M504,220.5V0H724.5V31.5H567v63H693V126H567v63H724.5v31.5Z"/><path class="cls-1" d="M787.5,220.5V189H756V157.5h63V189h94.5V126h-126V94.5H756v-63h31.5V0H945V31.5h31.5V63h-63V31.5H819v63H945V126h31.5v63H945v31.5Z"/><path class="cls-1" d="M1102.5,220.5V31.5h-63V0h189V31.5h-63v189Z"/></g></g></svg>