<svg xmlns="http://www.w3.org/2000/svg" viewBox="0 0 1243.46 155.68"><defs><style>.cls-1{fill:#fff;}</style></defs><g id="レイヤー_2" data-name="レイヤー 2"><g id="レイヤー_1-2" data-name="レイヤー 1"><path class="cls-1" d="M153.37,21.91v87.64H131.46v21.91H109.55v21.91H21.91V131.46H0V21.91H21.91V0H131.46V21.91Zm-43.82,0H43.82V131.46H87.64V109.55H65.73V87.64h43.82Zm21.91,131.46V131.46h21.91v21.91Z"/><path class="cls-1" d="M197.19,153.37V131.46H175.28V0h43.83V131.46h65.73V0h43.82V131.46H306.75v21.91Z"/><path class="cls-1" d="M350.57,153.37V0H503.94V21.91H394.39V65.73H482V87.64H394.39v43.82H503.94v21.91Z"/><path class="cls-1" d="M547.76,153.37V131.46H525.85V109.55h43.82v21.91h65.74V87.64H547.76V65.73H525.85V21.91h21.91V0H657.32V21.91h21.91V43.82H635.41V21.91H569.67V65.73h87.65V87.64h21.91v43.82H657.32v21.91Z"/><path class="cls-1" d="M766.87,153.37V21.91H723.05V0H854.51V21.91H810.69V153.37Z"/><path class="cls-1" d="M887.62,155.68V139.5H871.45V91h16.17V74.81H968.5V91h16.17v32.35H903.8V139.5h64.7v16.18Zm16.18-48.53h48.52V91H903.8Z"/><path class="cls-1" d="M1000.84,155.68V139.5h80.88V123.33H1017V107.15h-16.18V91H1017V74.81h80.87V91h-64.7v16.17h64.7v16.18h16.17V139.5h-16.17v16.18Z"/><path class="cls-1" d="M1178.76,155.68V91h-32.35V74.81h32.35V42.46h32.35V74.81h32.35V91h-32.35v64.7Z"/></g></g></svg>