<svg width="926" height="209" viewBox="0 0 926 209" fill="none" xmlns="http://www.w3.org/2000/svg">
<path d="M332.652 156.407H304.928C290.159 156.407 279.354 146.043 279.354 132.103V125.445H297.362V133.01C297.372 134.712 298.027 136.346 299.196 137.582C300.365 138.818 301.96 139.564 303.658 139.669H333.921C335.619 139.564 337.214 138.818 338.383 137.582C339.552 136.346 340.208 134.712 340.218 133.01V119.511C340.218 108.888 318.971 112.489 305.627 112.127C291.066 111.582 280.08 101.762 280.08 87.6413V75.9298C280.08 61.8864 290.884 51.6259 305.627 51.6259H331.201C345.97 51.6259 356.774 61.99 356.774 75.9298V82.7701H338.767V74.997C338.757 73.2957 338.101 71.6617 336.932 70.4255C335.763 69.1892 334.168 68.4431 332.47 68.338H304.384C302.685 68.4431 301.091 69.1892 299.922 70.4255C298.753 71.6617 298.097 73.2957 298.087 74.997V88.6777C298.087 99.3009 319.334 95.6994 332.652 95.8808C347.058 96.2435 358.225 106.245 358.225 120.366V132.078C358.225 146.147 347.421 156.407 332.652 156.407Z" fill="#231C32"/>
<path d="M463.733 96.2692L440.672 119.148V156.044H422.328V119.148L399.268 96.2692C396.883 94.2203 395.02 91.6344 393.831 88.7244C392.641 85.8143 392.16 82.6634 392.427 79.5311V51.6256H410.565V78.8056C410.565 82.5885 410.565 83.1326 412.896 85.2832L431.448 104.198L450.182 85.2832C452.513 83.1326 452.513 82.6922 452.513 78.8056V51.6256H470.651V79.5311C470.908 82.6698 470.415 85.8248 469.212 88.7353C468.009 91.6457 466.131 94.2282 463.733 96.2692V96.2692Z" fill="#231C32"/>
<path d="M574.292 156.044V81.5003L555.196 103.472H544.028L524.958 81.5003V156.044H506.64V51.6256H521.59L550.169 84.9205C550.869 82.7699 577.712 51.6256 577.712 51.6256H592.662V156.044H574.292Z" fill="#231C32"/>
<path d="M679.075 156.044H628.654V51.6256H679.075C693.844 51.6256 704.986 62.2489 704.986 76.2923V86.9155C705.176 90.0039 704.641 93.094 703.421 95.9379C702.202 98.7817 700.333 101.3 697.964 103.291C700.26 105.067 702.096 107.369 703.318 110.002C704.539 112.635 705.111 115.523 704.986 118.423V131.378C705.011 145.421 693.844 156.044 679.075 156.044ZM686.641 75.0227C686.641 73.2469 685.989 71.5328 684.81 70.2053C683.63 68.8777 682.005 68.0289 680.241 67.8196H646.558V95.0255H678.609C685.112 95.0255 686.719 93.0304 686.719 86.7342L686.641 75.0227ZM686.641 120.029C686.641 113.37 685.035 111.401 679.257 111.401H646.558V140.032H680.241C681.986 139.799 683.586 138.94 684.745 137.615C685.903 136.29 686.54 134.589 686.537 132.829L686.641 120.029Z" fill="#231C32"/>
<path d="M797.925 156.044H766.599C751.83 156.044 741.025 145.68 741.025 131.741V75.9295C741.025 61.8861 751.83 51.6256 766.599 51.6256H797.925C812.693 51.6256 823.498 61.9898 823.498 75.9295V131.741C823.498 145.784 812.693 156.044 797.925 156.044ZM805.49 75.0227C805.48 73.3214 804.825 71.6873 803.656 70.4511C802.487 69.2149 800.892 68.4688 799.194 68.3637H765.329C763.631 68.4688 762.036 69.2149 760.867 70.4511C759.699 71.6873 759.043 73.3214 759.033 75.0227V132.647C759.043 134.349 759.699 135.983 760.867 137.219C762.036 138.455 763.631 139.201 765.329 139.306H799.194C800.892 139.201 802.487 138.455 803.656 137.219C804.825 135.983 805.48 134.349 805.49 132.647V75.0227Z" fill="#231C32"/>
<path d="M859.515 156.044V51.6256H878.222V139.306H925.042V156.044H859.515Z" fill="#231C32"/>
<path d="M104.406 0.302326C140.229 0.302326 174.011 11.1838 205.101 29.049L207.421 30.0699L206.725 32.506C206.627 67.5167 197.132 101.859 179.231 131.948C161.863 162.746 136.615 188.371 106.077 206.193L104.406 207.399L102.62 206.123C71.692 188.211 48.2584 162.991 30.4861 132.041C12.7137 101.09 2.041 66.7051 1.9946 30.9747L1.69298 29.3042L2.89946 28.353C33.9199 10.4646 68.5598 0.093514 104.36 0.0703125" fill="#8D33E5"/>
<path d="M206.215 28.0508C175.293 10.0561 140.184 0.502947 104.407 0.348206V206.215L106.727 207.607C137.534 189.665 163.076 163.931 180.787 132.991C198.728 102.256 208.236 67.3283 208.35 31.7399V29.1877L206.215 28.0508Z" fill="#7000DF"/>
<path d="M208.673 31.346V28.6314L206.353 27.2857C175.329 9.40948 140.153 0 104.348 0C68.5422 0 33.3656 9.40948 2.34208 27.2857L0.0219269 28.6314V31.346C0.107411 67.1031 9.58202 102.211 27.4977 133.156C45.4134 164.101 71.1418 189.799 102.109 207.678L104.429 209L106.749 207.678C137.731 189.817 163.473 164.123 181.391 133.174C199.309 102.225 208.774 67.1079 208.836 31.346H208.673ZM104.266 198.675C44.2208 163.595 5.7295 100.765 5.33507 31.2068C35.5797 14.1848 69.6999 5.24269 104.406 5.24269C139.111 5.24269 173.231 14.1848 203.476 31.2068C203.128 100.951 164.59 163.595 104.359 198.606L104.266 198.675Z" fill="#3F017F"/>
<path d="M104.407 198.605C44.2221 163.594 5.73078 100.764 5.33635 31.2062C35.5925 14.213 69.7052 5.27338 104.407 5.24367V0.000125795C68.5751 -0.00671229 33.3706 9.40249 2.32015 27.2851L0 28.6308V31.3454C0.0854845 67.1025 9.5601 102.21 27.4758 133.156C45.3915 164.101 71.1199 189.798 102.087 207.677L104.407 208.999V198.605Z" fill="#531B8C"/>
<path d="M170.021 65.0115C170.023 64.2213 169.889 63.4367 169.627 62.6913C167.297 55.9766 163.854 49.7019 159.442 44.1301C158.397 42.6916 157.121 41.3459 156.008 39.9306L155.103 38.8866C154.724 38.4756 154.286 38.1236 153.804 37.8425C152.848 37.283 151.755 37.0017 150.648 37.0304C150.103 37.0692 149.565 37.1783 149.047 37.3553C148.796 37.4259 148.554 37.5272 148.328 37.6569C148.328 37.6569 110.324 58.2366 104.431 61.2992C98.5607 58.2366 60.7655 37.5177 59.8606 37.4481C59.3432 37.2711 58.8051 37.162 58.2597 37.1232C57.146 37.0999 56.0471 37.3806 55.0811 37.9353C54.5968 38.2044 54.1646 38.558 53.805 38.9794L52.9002 40.0234C51.7169 41.3691 50.58 42.7148 49.4663 44.2229C45.2664 49.6025 41.8742 55.5663 39.3969 61.9257C38.938 62.8896 38.7002 63.9439 38.7008 65.0115C38.6887 66.0851 38.9156 67.148 39.3651 68.1232C39.8145 69.0983 40.4752 69.9612 41.2994 70.6494C41.4457 70.793 41.6094 70.9177 41.7866 71.0207L42.2739 71.3455L42.9931 71.8327L48.9559 75.545L60.8119 82.923L72.691 90.3939L82.5749 96.3103L82.7141 138.073V142.713V145.034C82.6818 145.474 82.6818 145.916 82.7141 146.356C82.7896 147.152 82.9771 147.933 83.2709 148.676C83.896 150.043 84.8434 151.237 86.0319 152.156C87.2548 153.038 88.632 153.683 90.0922 154.059C91.5836 154.439 93.0937 154.741 94.6165 154.964C101.019 155.869 107.517 155.869 113.92 154.964C116.24 154.593 116.82 154.453 118.352 154.105C119.856 153.791 121.264 153.123 122.458 152.156C123.647 151.237 124.594 150.043 125.219 148.676C125.513 147.933 125.701 147.152 125.776 146.356C125.776 145.846 125.776 145.451 125.776 145.034C125.776 145.034 126.287 107.377 126.124 96.4263L135.892 90.4635L148.026 82.8766L159.975 75.429L165.915 71.6935C167.155 71.0741 168.197 70.1199 168.922 68.939C169.648 67.7581 170.029 66.3976 170.021 65.0115V65.0115Z" fill="#3F017F"/>
<path d="M87.0978 93.9899C87.1088 90.4625 86.3153 86.979 84.7777 83.8044C83.2451 80.6469 81.0254 77.8722 78.2813 75.6839C70.4623 69.4427 58.2816 67.1921 46.472 69.7675C45.7063 69.9067 43.5486 68.6074 42.7829 68.445C42.7829 68.445 42.5973 68.3058 43.015 68.677C43.4326 69.0482 43.3398 69.3499 43.4326 69.4195L87.0978 94.4539V93.9899Z" fill="#F4A900"/>
<path d="M125.312 66.5658C134.593 62.9232 142.643 53.5266 146.332 42.065C146.611 41.2298 148.073 41.021 148.653 40.4641C148.861 40.3017 148.165 39.5593 148.397 39.42L104.315 64.7793L104.871 65.0809C107.923 66.8589 111.34 67.9169 114.862 68.1743C118.384 68.4316 121.919 67.8815 125.196 66.5658H125.312Z" fill="#78B6E4"/>
<path d="M120.925 95.1498C117.91 96.9163 115.337 99.3476 113.403 102.259C111.469 105.169 110.225 108.483 109.765 111.948C108.373 121.832 112.48 133.432 120.577 142.249C121.204 142.899 121.157 144.128 121.297 144.987C121.297 145.219 121.552 145.219 121.784 145.358L121.969 94.6394L120.925 95.1498Z" fill="#20B5AC"/>
<path d="M111.808 113.874C112.415 110.409 113.802 107.128 115.864 104.278C117.926 101.428 120.609 99.0841 123.71 97.4238L121.9 94.5933L120.926 95.1965C117.903 96.9469 115.329 99.3777 113.409 102.296C111.479 105.213 110.234 108.528 109.766 111.994C108.583 120.602 111.576 130.672 117.863 139.001C113.118 131.527 110.988 122.689 111.808 113.874V113.874Z" fill="#3F017F"/>
<path d="M125.729 63.9672C122.419 65.1575 118.882 65.5797 115.385 65.2018C111.888 64.824 108.523 63.656 105.544 61.7862L103.943 64.7328L104.941 65.3361C107.971 67.0704 111.354 68.0984 114.837 68.3434C118.32 68.5885 121.813 68.0443 125.056 66.7514C134.29 62.57 141.705 55.1965 145.938 45.986C145.938 45.8236 145.311 45.058 144.662 46.45C140.479 54.2359 133.816 60.4013 125.729 63.9672V63.9672Z" fill="#3F017F"/>
<path d="M75.8225 77.1922C78.4288 79.3052 80.4876 82.0153 81.8244 85.0928C83.1612 88.1703 83.7367 91.5246 83.5022 94.8717L86.8432 95.9158L87.8873 94.7789C88.0961 87.8184 85.0103 78.8859 79.4652 74.3616C73.0383 68.9324 59.4886 67.1227 50.3936 68.4684C50.0456 68.4684 49.8832 69.0484 52.273 68.9556C60.8463 68.8515 69.1829 71.7673 75.8225 77.1922V77.1922Z" fill="#3F017F"/>
<path d="M104.407 151.182C99.7069 151.193 95.0263 150.584 90.4857 149.372C89.5319 149.105 88.6886 148.54 88.0792 147.759C87.4697 146.979 87.1259 146.023 87.0982 145.033V93.9901C87.1233 90.489 86.3557 87.0277 84.8529 83.8654C83.3501 80.7032 81.1512 77.9221 78.4209 75.7305C70.6019 69.4893 58.4212 67.2387 46.6116 69.8141C46.0208 69.9534 45.4079 69.9718 44.8098 69.8681C44.2117 69.7644 43.6408 69.5409 43.1314 69.2108C42.0898 68.5625 41.3473 67.5281 41.0664 66.3338C40.8599 65.4537 40.9246 64.5316 41.252 63.6889C42.7393 59.4626 44.5867 55.3718 46.774 51.4617C49.0688 47.3822 51.9102 43.6353 55.2193 40.3249C55.9462 39.6348 56.8769 39.1986 57.8723 39.0815C58.8676 38.9644 59.8742 39.1727 60.7413 39.6753L103.78 64.4545L104.917 65.1274C107.96 66.9072 111.372 67.9627 114.888 68.2121C118.405 68.4616 121.931 67.8983 125.195 66.5659C134.476 62.9232 142.55 53.5266 146.239 42.0651C146.417 41.4801 146.709 40.936 147.097 40.4641C147.508 40.0057 147.995 39.6212 148.536 39.3273C149.08 39.0489 149.669 38.8682 150.276 38.7936C150.887 38.7261 151.506 38.7975 152.086 39.0025C152.935 39.2765 153.69 39.7829 154.267 40.4641C157.18 43.8852 159.796 47.5489 162.086 51.4153C164.491 55.4587 166.304 59.8264 167.468 64.3849C167.709 65.3588 167.628 66.3845 167.236 67.3083C166.851 68.2339 166.164 69.0023 165.287 69.4892L121.993 94.4541L120.81 95.1501C117.806 96.9298 115.242 99.3646 113.31 102.273C111.377 105.182 110.126 108.489 109.65 111.948C108.258 121.832 112.365 133.433 120.462 142.249C121.027 142.864 121.415 143.619 121.587 144.436C121.758 145.252 121.706 146.1 121.436 146.89C121.162 147.675 120.681 148.372 120.044 148.908C119.378 149.457 118.577 149.818 117.724 149.952C113.323 150.705 108.871 151.116 104.407 151.182V151.182Z" fill="white"/>
</svg>
