<svg width="472" height="445" viewBox="0 0 472 445" fill="none" xmlns="http://www.w3.org/2000/svg">
<path d="M38.9607 444.596H18.6943C7.89821 444.596 0 437.02 0 426.83V421.962H13.1637V427.492C13.1709 428.736 13.6502 429.931 14.5047 430.834C15.3591 431.738 16.525 432.283 17.7663 432.36H39.8888C41.1301 432.283 42.2959 431.738 43.1504 430.834C44.0048 429.931 44.4842 428.736 44.4914 427.492V417.624C44.4914 409.859 28.9601 412.492 19.2057 412.226C8.56113 411.829 0.530333 404.65 0.530333 394.328V385.766C0.530333 375.501 8.42855 368 19.2057 368H37.9001C48.6962 368 56.5944 375.576 56.5944 385.766V390.767H43.4307V385.085C43.4235 383.841 42.9442 382.646 42.0897 381.743C41.2353 380.839 40.0695 380.294 38.8282 380.217H18.2966C17.0553 380.294 15.8895 380.839 15.035 381.743C14.1806 382.646 13.7012 383.841 13.694 385.085V395.085C13.694 402.851 29.2253 400.218 38.9607 400.351C49.4917 400.616 57.6551 407.927 57.6551 418.249V426.811C57.6551 437.095 49.7569 444.596 38.9607 444.596Z" fill="#231C32"/>
<path d="M134.781 400.635L117.924 417.359V444.33H104.514V417.359L87.6571 400.635C85.9142 399.137 84.552 397.247 83.6827 395.119C82.8133 392.992 82.4617 390.689 82.6568 388.399V368H95.9152V387.869C95.9152 390.634 95.9152 391.032 97.6199 392.604L111.181 406.43L124.875 392.604C126.58 391.032 126.58 390.71 126.58 387.869V368H139.838V388.399C140.027 390.693 139.666 393 138.787 395.127C137.908 397.255 136.534 399.143 134.781 400.635V400.635Z" fill="#231C32"/>
<path d="M215.6 444.33V389.838L201.641 405.9H193.478L179.537 389.838V444.33H166.146V368H177.075L197.966 392.339C198.478 390.767 218.1 368 218.1 368H229.029V444.33H215.6Z" fill="#231C32"/>
<path d="M292.197 444.33H255.339V368H292.197C302.993 368 311.138 375.766 311.138 386.031V393.797C311.277 396.055 310.886 398.314 309.994 400.392C309.103 402.471 307.737 404.312 306.005 405.767C307.683 407.066 309.025 408.748 309.919 410.673C310.812 412.598 311.23 414.709 311.138 416.829V426.299C311.157 436.565 302.993 444.33 292.197 444.33ZM297.728 385.103C297.728 383.805 297.251 382.552 296.389 381.582C295.527 380.611 294.339 379.991 293.05 379.838H268.427V399.725H291.856C296.61 399.725 297.785 398.267 297.785 393.664L297.728 385.103ZM297.728 418.003C297.728 413.135 296.554 411.696 292.33 411.696H268.427V432.625H293.05C294.325 432.455 295.495 431.827 296.342 430.859C297.189 429.89 297.654 428.646 297.652 427.36L297.728 418.003Z" fill="#231C32"/>
<path d="M379.076 444.33H356.177C345.381 444.33 337.483 436.754 337.483 426.564V385.766C337.483 375.5 345.381 368 356.177 368H379.076C389.872 368 397.771 375.576 397.771 385.766V426.564C397.771 436.83 389.872 444.33 379.076 444.33ZM384.607 385.103C384.6 383.86 384.12 382.665 383.266 381.762C382.412 380.858 381.246 380.312 380.004 380.236H355.249C354.008 380.312 352.842 380.858 351.988 381.762C351.133 382.665 350.654 383.86 350.647 385.103V427.227C350.654 428.471 351.133 429.665 351.988 430.569C352.842 431.473 354.008 432.018 355.249 432.095H380.004C381.246 432.018 382.412 431.473 383.266 430.569C384.12 429.665 384.6 428.471 384.607 427.227V385.103Z" fill="#231C32"/>
<path d="M424.099 444.33V368H437.774V432.095H472V444.33H424.099Z" fill="#231C32"/>
<path d="M236.308 0.432352C287.538 0.432352 335.848 15.9937 380.309 41.5422L383.627 43.0021L382.631 46.486C382.491 96.5538 368.912 145.666 343.313 188.695C318.476 232.739 282.369 269.384 238.697 294.87L236.308 296.596L233.753 294.771C189.525 269.156 156.013 233.089 130.597 188.828C105.182 144.566 89.9188 95.3931 89.8524 44.2961L89.4211 41.9072L91.1464 40.5468C135.508 14.9651 185.045 0.133735 236.242 0.100555" fill="#8D33E5"/>
<path d="M381.903 40.1147C337.681 14.381 287.474 0.719247 236.31 0.497955V294.903L239.628 296.894C283.683 271.235 320.21 234.434 345.538 190.187C371.195 146.233 384.792 96.2844 384.956 45.3903V41.7405L381.903 40.1147Z" fill="#7000DF"/>
<path d="M385.418 44.827V40.945L382.1 39.0205C337.734 13.4562 287.429 0 236.225 0C185.02 0 134.715 13.4562 90.3494 39.0205L87.0314 40.945V44.827C87.1536 95.9623 100.703 146.169 126.324 190.423C151.944 234.677 188.738 271.426 233.023 296.994L236.341 298.885L239.659 296.994C283.966 271.452 320.778 234.708 346.402 190.449C372.026 146.189 385.561 95.9691 385.65 44.827H385.418ZM236.108 284.12C150.239 233.952 95.1936 144.101 94.6296 44.6279C137.882 20.2853 186.676 7.49742 236.308 7.49742C285.939 7.49742 334.734 20.2853 377.985 44.6279C377.488 144.367 322.376 233.952 236.241 284.021L236.108 284.12Z" fill="#3F017F"/>
<path d="M236.309 284.02C150.241 233.951 95.1954 144.1 94.6314 44.627C137.9 20.3255 186.684 7.54126 236.309 7.49877V0.000127397C185.067 -0.00965157 134.722 13.4462 90.318 39.0196L87 40.9441V44.8261C87.1222 95.9614 100.672 146.168 126.292 190.422C151.913 234.676 188.707 271.425 232.991 296.993L236.309 298.884V284.02Z" fill="#531B8C"/>
<path d="M330.143 92.9711C330.145 91.8411 329.954 90.7191 329.579 89.6531C326.247 80.0506 321.323 71.0773 315.013 63.1092C313.52 61.0521 311.695 59.1277 310.102 57.1037L308.808 55.6106C308.267 55.0229 307.641 54.5196 306.95 54.1175C305.584 53.3173 304.021 52.9151 302.438 52.9562C301.658 53.0116 300.888 53.1677 300.148 53.4207C299.789 53.5217 299.444 53.6666 299.12 53.8521C299.12 53.8521 244.771 83.2826 236.343 87.6623C227.949 83.2826 173.899 53.653 172.605 53.5534C171.865 53.3004 171.096 53.1443 170.316 53.0889C168.723 53.0555 167.151 53.457 165.77 54.2502C165.077 54.635 164.459 55.1407 163.945 55.7433L162.651 57.2364C160.959 59.1608 159.333 61.0853 157.74 63.2419C151.734 70.9351 146.883 79.4638 143.34 88.5582C142.684 89.9367 142.344 91.4444 142.345 92.9711C142.328 94.5065 142.652 96.0265 143.295 97.421C143.938 98.8155 144.883 100.05 146.061 101.034C146.27 101.239 146.504 101.417 146.758 101.565L147.455 102.029L148.483 102.726L157.01 108.035L173.965 118.586L190.953 129.27L205.088 137.731L205.287 197.454V204.09V207.408C205.241 208.038 205.241 208.67 205.287 209.3C205.395 210.438 205.663 211.555 206.083 212.618C206.977 214.572 208.332 216.28 210.032 217.595C211.781 218.856 213.75 219.778 215.838 220.315C217.971 220.858 220.131 221.29 222.308 221.609C231.465 222.903 240.758 222.903 249.914 221.609C253.232 221.078 254.062 220.879 256.251 220.382C258.403 219.932 260.416 218.977 262.124 217.595C263.824 216.28 265.179 214.572 266.073 212.618C266.493 211.555 266.761 210.438 266.869 209.3C266.869 208.57 266.869 208.006 266.869 207.408C266.869 207.408 267.599 153.558 267.367 137.897L281.335 129.369L298.688 118.52L315.776 107.869L324.27 102.527C326.043 101.641 327.533 100.277 328.571 98.5878C329.609 96.899 330.154 94.9533 330.143 92.9711V92.9711Z" fill="#3F017F"/>
<path d="M211.556 134.412C211.572 129.368 210.437 124.386 208.238 119.846C206.046 115.331 202.872 111.363 198.948 108.233C187.766 99.3081 170.347 96.0897 153.458 99.7726C152.363 99.9717 149.278 98.1136 148.183 97.8814C148.183 97.8814 147.917 97.6823 148.514 98.2132C149.112 98.7441 148.979 99.1754 149.112 99.2749L211.556 135.076V134.412Z" fill="#F4A900"/>
<path d="M266.205 95.1939C279.477 89.9847 290.99 76.5469 296.266 60.156C296.664 58.9615 298.755 58.6629 299.584 57.8666C299.883 57.6343 298.887 56.5726 299.219 56.3735L236.177 92.6391L236.974 93.0704C241.337 95.6131 246.224 97.1261 251.261 97.4941C256.298 97.8621 261.352 97.0754 266.039 95.1939H266.205Z" fill="#78B6E4"/>
<path d="M259.932 136.071C255.62 138.597 251.941 142.074 249.175 146.237C246.409 150.4 244.63 155.139 243.973 160.093C241.982 174.228 247.855 190.818 259.434 203.426C260.33 204.355 260.264 206.114 260.463 207.342C260.463 207.673 260.828 207.673 261.16 207.872L261.425 135.341L259.932 136.071Z" fill="#20B5AC"/>
<path d="M246.893 162.847C247.762 157.893 249.745 153.2 252.694 149.124C255.643 145.049 259.48 141.697 263.915 139.323L261.326 135.275L259.933 136.138C255.609 138.641 251.929 142.117 249.183 146.291C246.423 150.462 244.642 155.203 243.973 160.16C242.281 172.47 246.561 186.87 255.553 198.781C248.767 188.093 245.721 175.454 246.893 162.847V162.847Z" fill="#3F017F"/>
<path d="M266.802 91.4777C262.068 93.1799 257.01 93.7837 252.009 93.2433C247.008 92.703 242.196 91.0327 237.935 88.3588L235.646 92.5726L237.073 93.4353C241.406 95.9155 246.244 97.3856 251.225 97.736C256.206 98.0865 261.201 97.3082 265.84 95.4593C279.045 89.4796 289.648 78.935 295.701 65.7633C295.701 65.5311 294.806 64.4361 293.876 66.4269C287.896 77.5612 278.366 86.3782 266.802 91.4777V91.4777Z" fill="#3F017F"/>
<path d="M195.432 110.39C199.159 113.412 202.103 117.288 204.015 121.689C205.927 126.09 206.75 130.887 206.414 135.673L211.192 137.166L212.685 135.541C212.984 125.587 208.571 112.812 200.641 106.342C191.45 98.5783 172.073 95.9902 159.067 97.9147C158.569 97.9147 158.337 98.7442 161.754 98.6114C174.015 98.4626 185.937 102.632 195.432 110.39V110.39Z" fill="#3F017F"/>
<path d="M236.309 216.201C229.588 216.216 222.895 215.346 216.401 213.613C215.037 213.231 213.831 212.423 212.96 211.306C212.088 210.19 211.596 208.824 211.557 207.408V134.413C211.593 129.406 210.495 124.456 208.346 119.934C206.197 115.412 203.052 111.434 199.148 108.3C187.966 99.3747 170.546 96.1563 153.658 99.8393C152.813 100.038 151.937 100.065 151.081 99.9165C150.226 99.7683 149.409 99.4485 148.681 98.9766C147.191 98.0494 146.13 96.5702 145.728 94.8623C145.433 93.6036 145.525 92.2849 145.993 91.0798C148.12 85.0359 150.762 79.1858 153.89 73.594C157.172 67.76 161.235 62.4017 165.968 57.6677C167.007 56.6808 168.338 56.0569 169.762 55.8895C171.185 55.722 172.624 56.0199 173.864 56.7386L235.413 92.1747L237.039 93.1369C241.391 95.6822 246.27 97.1916 251.299 97.5483C256.327 97.9051 261.371 97.0995 266.038 95.1941C279.31 89.9848 290.857 76.547 296.132 60.1562C296.387 59.3196 296.804 58.5415 297.36 57.8667C297.948 57.2111 298.643 56.6612 299.417 56.2409C300.195 55.8428 301.038 55.5845 301.905 55.4778C302.78 55.3812 303.664 55.4833 304.494 55.7764C305.708 56.1684 306.788 56.8925 307.612 57.8667C311.779 62.759 315.52 67.9984 318.794 73.5276C322.234 79.31 324.827 85.5562 326.492 92.0752C326.836 93.468 326.72 94.9348 326.16 96.2558C325.608 97.5795 324.626 98.6784 323.373 99.3747L261.459 135.076L259.767 136.072C255.471 138.617 251.804 142.099 249.041 146.258C246.277 150.417 244.489 155.147 243.808 160.094C241.817 174.228 247.69 190.818 259.269 203.427C260.077 204.305 260.632 205.385 260.878 206.553C261.123 207.721 261.049 208.934 260.663 210.063C260.27 211.186 259.583 212.183 258.672 212.949C257.72 213.735 256.574 214.251 255.354 214.442C249.061 215.519 242.693 216.107 236.309 216.201V216.201Z" fill="white"/>
</svg>
