<svg width="472" height="445" viewBox="0 0 472 445" fill="none" xmlns="http://www.w3.org/2000/svg">
<path d="M38.9607 444.748H18.6943C7.89821 444.748 0 437.172 0 426.982V422.114H13.1637V427.645C13.1709 428.889 13.6502 430.083 14.5047 430.987C15.3591 431.891 16.525 432.436 17.7663 432.513H39.8888C41.1301 432.436 42.2959 431.891 43.1504 430.987C44.0048 430.083 44.4842 428.889 44.4914 427.645V417.777C44.4914 410.011 28.9601 412.644 19.2057 412.379C8.56113 411.981 0.530333 404.803 0.530333 394.48V385.919C0.530333 375.653 8.42855 368.153 19.2057 368.153H37.9001C48.6962 368.153 56.5944 375.729 56.5944 385.919V390.919H43.4307V385.237C43.4235 383.994 42.9442 382.799 42.0897 381.895C41.2353 380.992 40.0695 380.446 38.8282 380.369H18.2966C17.0553 380.446 15.8895 380.992 15.035 381.895C14.1806 382.799 13.7012 383.994 13.694 385.237V395.238C13.694 403.003 29.2253 400.371 38.9607 400.503C49.4917 400.768 57.6551 408.079 57.6551 418.402V426.963C57.6551 437.248 49.7569 444.748 38.9607 444.748Z" fill="white"/>
<path d="M134.781 400.787L117.924 417.512V444.483H104.514V417.512L87.6572 400.787C85.9143 399.29 84.5521 397.399 83.6827 395.272C82.8134 393.145 82.4618 390.841 82.6569 388.552V368.153H95.9153V388.021C95.9153 390.787 95.9153 391.184 97.6199 392.756L111.181 406.583L124.875 392.756C126.58 391.184 126.58 390.862 126.58 388.021V368.153H139.838V388.552C140.027 390.846 139.666 393.152 138.787 395.28C137.908 397.407 136.535 399.295 134.781 400.787V400.787Z" fill="white"/>
<path d="M215.6 444.483V389.991L201.641 406.053H193.477L179.537 389.991V444.483H166.146V368.153H177.075L197.966 392.491C198.478 390.919 218.1 368.153 218.1 368.153H229.029V444.483H215.6Z" fill="white"/>
<path d="M292.197 444.483H255.339V368.153H292.197C302.993 368.153 311.138 375.918 311.138 386.184V393.95C311.277 396.207 310.886 398.466 309.994 400.545C309.103 402.624 307.736 404.465 306.005 405.92C307.683 407.219 309.025 408.901 309.918 410.826C310.812 412.75 311.23 414.861 311.138 416.981V426.452C311.157 436.717 302.993 444.483 292.197 444.483ZM297.728 385.256C297.728 383.958 297.251 382.705 296.389 381.734C295.527 380.764 294.339 380.143 293.05 379.991H268.427V399.878H291.856C296.61 399.878 297.785 398.42 297.785 393.817L297.728 385.256ZM297.728 418.156C297.728 413.288 296.554 411.849 292.33 411.849H268.427V432.778H293.05C294.325 432.608 295.495 431.98 296.342 431.011C297.188 430.043 297.654 428.799 297.652 427.512L297.728 418.156Z" fill="white"/>
<path d="M379.076 444.483H356.177C345.381 444.483 337.483 436.907 337.483 426.717V385.919C337.483 375.653 345.381 368.153 356.177 368.153H379.076C389.873 368.153 397.771 375.729 397.771 385.919V426.717C397.771 436.983 389.873 444.483 379.076 444.483ZM384.607 385.256C384.6 384.012 384.12 382.818 383.266 381.914C382.412 381.01 381.246 380.465 380.004 380.388H355.249C354.008 380.465 352.842 381.01 351.988 381.914C351.133 382.818 350.654 384.012 350.647 385.256V427.38C350.654 428.623 351.133 429.818 351.988 430.722C352.842 431.625 354.008 432.171 355.249 432.248H380.004C381.246 432.171 382.412 431.625 383.266 430.722C384.12 429.818 384.6 428.623 384.607 427.38V385.256Z" fill="white"/>
<path d="M424.099 444.483V368.153H437.774V432.248H472V444.483H424.099Z" fill="white"/>
<path d="M236.541 0.432288C287.77 0.432288 336.079 15.9935 380.54 41.5418L383.858 43.0017L382.863 46.4855C382.722 96.5529 369.144 145.665 343.545 188.693C318.708 232.737 282.601 269.381 238.93 294.868L236.541 296.593L233.986 294.768C189.758 269.153 156.246 233.087 130.831 188.826C105.415 144.564 90.1526 95.3922 90.0862 44.2957L89.6549 41.9067L91.3802 40.5464C135.741 14.9649 185.278 0.133674 236.474 0.100494" fill="#8D33E5"/>
<path d="M382.134 40.1146C337.913 14.3812 287.706 0.71955 236.542 0.49826V294.9L239.86 296.891C283.915 271.233 320.442 234.432 345.769 190.186C371.426 146.232 385.024 96.2838 385.187 45.3902V41.7404L382.134 40.1146Z" fill="#7000DF"/>
<path d="M385.653 44.8267V40.9447L382.335 39.0203C337.969 13.4562 287.665 9.15527e-05 236.461 9.15527e-05C185.257 9.15527e-05 134.953 13.4562 90.587 39.0203L87.269 40.9447V44.8267C87.3913 95.9616 100.941 146.168 126.561 190.421C152.182 234.675 188.975 271.424 233.259 296.991L236.577 298.883L239.895 296.991C284.202 271.45 321.013 234.706 346.637 190.447C372.261 146.188 385.796 95.9683 385.885 44.8267H385.653ZM236.345 284.118C150.476 233.95 95.4312 144.1 94.8672 44.6276C138.119 20.2852 186.913 7.49745 236.544 7.49745C286.175 7.49745 334.969 20.2852 378.221 44.6276C377.723 144.365 322.612 233.95 236.477 284.018L236.345 284.118Z" fill="#7000DF"/>
<path d="M236.542 284.017C150.474 233.949 95.429 144.099 94.8649 44.6267C138.133 20.3254 186.916 7.54122 236.542 7.49874V0.000157914C185.3 -0.00962096 134.956 13.4461 90.5516 39.0193L87.2336 40.9437V44.8257C87.3559 95.9606 100.905 146.167 126.526 190.42C152.146 234.674 188.939 271.423 233.224 296.99L236.542 298.882V284.017Z" fill="#8D33E5"/>
<path d="M330.374 92.9703C330.376 91.8403 330.185 90.7183 329.81 89.6523C326.479 80.0499 321.555 71.0767 315.245 63.1087C313.751 61.0516 311.927 59.1272 310.334 57.1032L309.04 55.6101C308.499 55.0224 307.872 54.5191 307.182 54.1171C305.815 53.3169 304.252 52.9147 302.669 52.9558C301.89 53.0111 301.12 53.1673 300.38 53.4203C300.021 53.5213 299.675 53.6662 299.352 53.8516C299.352 53.8516 245.003 83.2819 236.576 87.6616C228.181 83.2819 174.132 53.6525 172.838 53.553C172.098 53.3 171.329 53.1439 170.549 53.0885C168.956 53.0551 167.384 53.4566 166.003 54.2498C165.31 54.6345 164.692 55.1402 164.178 55.7429L162.884 57.2359C161.192 59.1603 159.566 61.0848 157.973 63.2414C151.967 70.9345 147.116 79.4631 143.574 88.5574C142.917 89.9359 142.577 91.4436 142.578 92.9703C142.561 94.5057 142.885 96.0257 143.528 97.4202C144.171 98.8147 145.116 100.049 146.294 101.033C146.504 101.238 146.738 101.417 146.991 101.564L147.688 102.028L148.716 102.725L157.244 108.034L174.198 118.585L191.186 129.269L205.321 137.73L205.52 197.453V204.089V207.407C205.474 208.036 205.474 208.668 205.52 209.298C205.628 210.436 205.896 211.553 206.316 212.616C207.21 214.57 208.565 216.278 210.264 217.593C212.013 218.854 213.983 219.777 216.071 220.313C218.204 220.856 220.363 221.288 222.541 221.607C231.697 222.901 240.99 222.901 250.146 221.607C253.464 221.077 254.294 220.877 256.484 220.38C258.635 219.93 260.648 218.975 262.356 217.593C264.056 216.278 265.411 214.57 266.305 212.616C266.725 211.553 266.993 210.436 267.101 209.298C267.101 208.568 267.101 208.004 267.101 207.407C267.101 207.407 267.831 153.556 267.599 137.895L281.567 129.368L298.92 118.519L316.008 107.868L324.502 102.526C326.275 101.64 327.765 100.276 328.803 98.5869C329.841 96.8981 330.385 94.9525 330.374 92.9703V92.9703Z" fill="#3F017F"/>
<path d="M211.789 134.411C211.804 129.367 210.67 124.386 208.471 119.846C206.279 115.33 203.105 111.362 199.18 108.233C187.999 99.3075 170.58 96.0891 153.691 99.772C152.596 99.9711 149.511 98.113 148.416 97.8808C148.416 97.8808 148.15 97.6817 148.748 98.2126C149.345 98.7434 149.212 99.1748 149.345 99.2743L211.789 135.075V134.411Z" fill="#F4A900"/>
<path d="M266.437 95.1929C279.709 89.9838 291.222 76.546 296.498 60.1553C296.896 58.9609 298.986 58.6623 299.816 57.8659C300.115 57.6337 299.119 56.5719 299.451 56.3729L236.41 92.6381L237.206 93.0695C241.57 95.6121 246.456 97.1251 251.493 97.4931C256.53 97.8611 261.585 97.0744 266.271 95.1929H266.437Z" fill="#78B6E4"/>
<path d="M260.164 136.07C255.852 138.596 252.173 142.073 249.407 146.236C246.642 150.399 244.862 155.138 244.205 160.092C242.214 174.227 248.087 190.817 259.667 203.425C260.562 204.354 260.496 206.112 260.695 207.34C260.695 207.672 261.06 207.672 261.392 207.871L261.657 135.34L260.164 136.07Z" fill="#20B5AC"/>
<path d="M247.125 162.846C247.994 157.891 249.977 153.199 252.926 149.123C255.875 145.048 259.712 141.696 264.147 139.322L261.559 135.274L260.165 136.137C255.841 138.64 252.161 142.116 249.415 146.29C246.655 150.461 244.875 155.202 244.206 160.159C242.514 172.468 246.794 186.868 255.785 198.78C248.999 188.091 245.953 175.452 247.125 162.846V162.846Z" fill="#3F017F"/>
<path d="M267.034 91.4769C262.301 93.179 257.242 93.7828 252.241 93.2425C247.241 92.7021 242.428 91.0319 238.168 88.358L235.878 92.5718L237.305 93.4345C241.639 95.9146 246.476 97.3847 251.457 97.7351C256.438 98.0855 261.433 97.3073 266.072 95.4584C279.277 89.4788 289.88 78.9343 295.933 65.7627C295.933 65.5304 295.037 64.4355 294.108 66.4263C288.127 77.5605 278.598 86.3774 267.034 91.4769V91.4769Z" fill="#3F017F"/>
<path d="M195.664 110.389C199.392 113.411 202.336 117.287 204.248 121.688C206.159 126.089 206.982 130.886 206.647 135.672L211.425 137.165L212.918 135.54C213.216 125.586 208.804 112.812 200.874 106.342C191.683 98.5775 172.306 95.9895 159.3 97.9139C158.802 97.9139 158.57 98.7434 161.987 98.6107C174.248 98.4618 186.17 102.632 195.664 110.389V110.389Z" fill="#3F017F"/>
<path d="M236.541 216.199C229.821 216.215 223.127 215.344 216.634 213.611C215.27 213.229 214.064 212.421 213.192 211.305C212.321 210.188 211.829 208.822 211.789 207.407V134.412C211.825 129.405 210.727 124.455 208.578 119.933C206.429 115.411 203.285 111.433 199.38 108.299C188.199 99.374 170.779 96.1556 153.891 99.8385C153.046 100.038 152.17 100.064 151.314 99.9158C150.459 99.7675 149.643 99.4478 148.914 98.9758C147.425 98.0487 146.363 96.5695 145.961 94.8616C145.666 93.6029 145.758 92.2842 146.227 91.0791C148.353 85.0353 150.995 79.1852 154.123 73.5935C157.405 67.7595 161.468 62.4013 166.201 57.6673C167.24 56.6804 168.571 56.0566 169.994 55.8891C171.418 55.7217 172.857 56.0196 174.097 56.7383L235.645 92.174L237.271 93.1362C241.623 95.6815 246.502 97.1909 251.531 97.5476C256.559 97.9043 261.603 97.0988 266.27 95.1934C279.542 89.9842 291.088 76.5465 296.364 60.1558C296.618 59.3192 297.036 58.5412 297.592 57.8664C298.179 57.2108 298.875 56.6609 299.649 56.2406C300.427 55.8425 301.269 55.5841 302.137 55.4775C303.011 55.3808 303.896 55.4829 304.725 55.7761C305.94 56.168 307.02 56.8921 307.844 57.8664C312.011 62.7586 315.751 67.9979 319.026 73.5271C322.466 79.3094 325.058 85.5556 326.723 92.0745C327.068 93.4673 326.951 94.9341 326.392 96.2551C325.84 97.5788 324.858 98.6777 323.604 99.374L261.691 135.075L259.999 136.071C255.703 138.616 252.036 142.098 249.273 146.257C246.51 150.416 244.721 155.146 244.04 160.093C242.049 174.227 247.922 190.817 259.502 203.425C260.309 204.304 260.865 205.384 261.11 206.552C261.355 207.719 261.281 208.932 260.895 210.061C260.502 211.184 259.815 212.181 258.904 212.948C257.952 213.733 256.806 214.249 255.586 214.441C249.293 215.517 242.925 216.105 236.541 216.199V216.199Z" fill="white"/>
</svg>
