<svg width="250" height="251" viewBox="0 0 250 251" fill="none" xmlns="http://www.w3.org/2000/svg">
<path d="M124.985 0.361974C167.869 0.361974 208.309 13.3883 245.527 34.7748L248.305 35.9969L247.471 38.9132C247.354 80.8247 235.987 121.936 214.558 157.955C193.767 194.825 163.543 225.5 126.985 246.834L124.985 248.279L122.846 246.751C85.8229 225.309 57.7705 195.118 36.4951 158.066C15.2197 121.015 2.44334 79.853 2.38779 37.0801L2.02672 35.0803L3.471 33.9415C40.6057 12.5273 82.0733 0.112003 124.93 0.0842285" fill="#8D33E5"/>
<path d="M246.862 33.5798C209.844 12.0383 167.815 0.602112 124.986 0.41687V246.861L127.764 248.528C164.643 227.049 195.219 196.243 216.421 159.205C237.898 122.411 249.28 80.5991 249.417 37.996V34.9408L246.862 33.5798Z" fill="#7000DF"/>
<path d="M249.805 37.5244V34.2748L247.027 32.6639C209.889 11.2641 167.779 0 124.916 0C82.0532 0 39.9431 11.2641 2.80466 32.6639L0.0271912 34.2748V37.5244C0.129525 80.3295 11.4716 122.357 32.9186 159.402C54.3656 196.447 85.1652 227.209 122.236 248.612L125.013 250.195L127.791 248.612C164.88 227.231 195.695 196.473 217.145 159.423C238.595 122.374 249.925 80.3352 249.999 37.5244H249.805ZM124.819 237.835C52.9379 195.84 6.85976 120.626 6.38759 37.3578C42.5936 16.9807 83.4391 6.27605 124.985 6.27605C166.532 6.27605 207.377 16.9807 243.583 37.3578C243.167 120.848 197.033 195.84 124.93 237.752L124.819 237.835Z" fill="#3F017F"/>
<path d="M124.986 237.751C52.9385 195.839 6.86034 120.626 6.38817 37.3571C42.608 17.0144 83.4445 6.31279 124.986 6.27723V0.000157047C82.0916 -0.00802887 39.9481 11.2558 2.77747 32.6632L0 34.2741V37.5237C0.102334 80.3288 11.4444 122.356 32.8914 159.401C54.3384 196.446 85.138 227.209 122.209 248.611L124.986 250.194V237.751Z" fill="#531B8C"/>
<path d="M203.534 77.8257C203.535 76.8798 203.375 75.9405 203.061 75.0482C200.272 67.01 196.151 59.4985 190.868 52.8285C189.618 51.1065 188.091 49.4955 186.758 47.8013L185.675 46.5514C185.221 46.0594 184.697 45.6381 184.119 45.3015C182.975 44.6317 181.667 44.295 180.342 44.3294C179.689 44.3758 179.045 44.5065 178.425 44.7183C178.125 44.8028 177.835 44.9241 177.564 45.0793C177.564 45.0793 132.069 69.7155 125.015 73.3817C117.988 69.7155 72.7427 44.9127 71.6595 44.8294C71.0402 44.6176 70.396 44.4869 69.7431 44.4405C68.4099 44.4125 67.0943 44.7486 65.938 45.4126C65.3582 45.7347 64.8409 46.158 64.4103 46.6625L63.3271 47.9124C61.9106 49.5233 60.5497 51.1342 59.2165 52.9396C54.1888 59.3795 50.1279 66.5188 47.1623 74.1316C46.613 75.2856 46.3283 76.5476 46.329 77.8257C46.3146 79.1109 46.5862 80.3833 47.1242 81.5507C47.6622 82.718 48.4532 83.751 49.4398 84.5749C49.6149 84.7468 49.8109 84.8961 50.0231 85.0193L50.6063 85.4082L51.4674 85.9914L58.6054 90.4354L72.7983 99.2677L87.0189 108.211L98.8509 115.294L99.0176 165.288V170.843V173.62C98.9789 174.147 98.9789 174.677 99.0176 175.204C99.1079 176.156 99.3324 177.091 99.6842 177.981C100.432 179.617 101.567 181.047 102.989 182.147C104.453 183.203 106.102 183.975 107.85 184.425C109.635 184.879 111.443 185.241 113.266 185.508C120.931 186.591 128.71 186.591 136.374 185.508C139.152 185.064 139.846 184.897 141.679 184.48C143.48 184.104 145.165 183.304 146.596 182.147C148.018 181.047 149.153 179.617 149.901 177.981C150.253 177.091 150.477 176.156 150.567 175.204C150.567 174.593 150.567 174.12 150.567 173.62C150.567 173.62 151.178 128.542 150.984 115.433L162.677 108.294L177.203 99.2122L191.507 90.2965L198.617 85.8248C200.102 85.0833 201.349 83.941 202.218 82.5274C203.087 81.1137 203.543 79.485 203.534 77.8257V77.8257Z" fill="#3F017F"/>
<path d="M104.265 112.516C104.278 108.293 103.329 104.123 101.488 100.323C99.6532 96.5429 96.996 93.2214 93.711 90.6017C84.3509 83.1303 69.7692 80.4362 55.6319 83.5192C54.7154 83.6858 52.1323 82.1304 51.2158 81.936C51.2158 81.936 50.9936 81.7694 51.4935 82.2138C51.9934 82.6582 51.8823 83.0192 51.9934 83.1026L104.265 113.071V112.516Z" fill="#F4A900"/>
<path d="M150.012 79.6863C161.121 75.3257 170.759 64.0769 175.175 50.3562C175.509 49.3564 177.259 49.1064 177.953 48.4398C178.203 48.2454 177.37 47.3566 177.647 47.1899L124.876 77.5476L125.542 77.9087C129.195 80.0372 133.285 81.3037 137.502 81.6117C141.718 81.9198 145.949 81.2612 149.873 79.6863H150.012Z" fill="#78B6E4"/>
<path d="M144.76 113.904C141.151 116.019 138.071 118.93 135.756 122.414C133.441 125.899 131.951 129.866 131.401 134.013C129.734 145.845 134.651 159.733 144.344 170.287C145.094 171.065 145.038 172.537 145.205 173.564C145.205 173.842 145.51 173.842 145.788 174.009L146.01 113.293L144.76 113.904Z" fill="#20B5AC"/>
<path d="M133.846 136.319C134.573 132.171 136.233 128.243 138.701 124.831C141.17 121.42 144.382 118.614 148.094 116.626L145.928 113.238L144.761 113.96C141.142 116.056 138.061 118.965 135.762 122.459C133.452 125.951 131.962 129.92 131.402 134.069C129.985 144.373 133.568 156.428 141.095 166.399C135.414 157.451 132.865 146.871 133.846 136.319V136.319Z" fill="#3F017F"/>
<path d="M150.511 76.5755C146.549 78.0004 142.315 78.5058 138.128 78.0535C133.942 77.6012 129.913 76.203 126.347 73.9647L124.431 77.4921L125.625 78.2143C129.253 80.2904 133.302 81.521 137.472 81.8143C141.641 82.1077 145.823 81.4562 149.706 79.9085C160.76 74.903 169.636 66.0761 174.703 55.0502C174.703 54.8558 173.953 53.9392 173.175 55.6057C168.169 64.9261 160.192 72.3068 150.511 76.5755V76.5755Z" fill="#3F017F"/>
<path d="M90.7676 92.4071C93.8876 94.9367 96.3521 98.1809 97.9524 101.865C99.5528 105.549 100.242 109.565 99.961 113.571L103.961 114.821L105.21 113.46C105.46 105.128 101.766 94.4346 95.1282 89.0186C87.4346 82.5193 71.2142 80.3529 60.3266 81.9638C59.9099 81.9638 59.7155 82.6582 62.5763 82.5471C72.8395 82.4225 82.8193 85.913 90.7676 92.4071V92.4071Z" fill="#3F017F"/>
<path d="M124.986 180.981C119.36 180.994 113.757 180.265 108.321 178.814C107.179 178.495 106.17 177.818 105.44 176.884C104.71 175.949 104.299 174.806 104.266 173.62V112.516C104.296 108.325 103.377 104.181 101.578 100.396C99.779 96.6104 97.1466 93.2811 93.8781 90.6575C84.518 83.1861 69.9363 80.492 55.799 83.5749C55.0918 83.7417 54.3581 83.7637 53.6421 83.6396C52.9262 83.5155 52.2427 83.2479 51.6328 82.8528C50.386 82.0767 49.4972 80.8384 49.1609 79.4087C48.9136 78.3551 48.9911 77.2512 49.3831 76.2424C51.1635 71.1831 53.3751 66.286 55.9935 61.6052C58.7406 56.7216 62.142 52.2362 66.1034 48.2733C66.9735 47.4472 68.0877 46.925 69.2792 46.7848C70.4708 46.6446 71.6758 46.894 72.7138 47.4957L124.236 77.159L125.597 77.9645C129.24 80.0951 133.324 81.3586 137.533 81.6572C141.743 81.9558 145.965 81.2815 149.872 79.6865C160.982 75.3259 170.647 64.0771 175.063 50.3564C175.276 49.6562 175.626 49.0049 176.091 48.44C176.583 47.8912 177.165 47.4309 177.813 47.079C178.465 46.7458 179.17 46.5295 179.896 46.4402C180.628 46.3593 181.369 46.4448 182.063 46.6902C183.079 47.0183 183.984 47.6244 184.673 48.44C188.161 52.5353 191.293 56.9211 194.033 61.5496C196.913 66.39 199.083 71.6187 200.477 77.0757C200.765 78.2416 200.668 79.4694 200.199 80.5753C199.738 81.6833 198.916 82.6032 197.866 83.1861L146.039 113.072L144.622 113.905C141.026 116.035 137.957 118.95 135.643 122.432C133.33 125.914 131.833 129.873 131.263 134.014C129.596 145.846 134.512 159.733 144.206 170.287C144.882 171.023 145.347 171.927 145.552 172.905C145.757 173.882 145.695 174.897 145.372 175.842C145.044 176.783 144.468 177.617 143.706 178.259C142.908 178.916 141.949 179.348 140.928 179.509C135.66 180.41 130.33 180.902 124.986 180.981V180.981Z" fill="white"/>
</svg>
